<?xml version="1.0" encoding="UTF-8" standalone="no"?>
<!-- Uploaded to: SVG Repo, www.svgrepo.com, Generator: SVG Repo Mixer Tools -->

<svg
   fill="#000000"
   height="800px"
   width="800px"
   version="1.1"
   id="Capa_1"
   viewBox="0 0 384.971 384.971"
   xml:space="preserve"
   sodipodi:docname="logout-svgrepo-com.svg"
   inkscape:version="1.3 (0e150ed6c4, 2023-07-21)"
   xmlns:inkscape="http://www.inkscape.org/namespaces/inkscape"
   xmlns:sodipodi="http://sodipodi.sourceforge.net/DTD/sodipodi-0.dtd"
   xmlns="http://www.w3.org/2000/svg"
   xmlns:svg="http://www.w3.org/2000/svg"><defs
   id="defs8" /><sodipodi:namedview
   id="namedview8"
   pagecolor="#ffffff"
   bordercolor="#000000"
   borderopacity="0.25"
   inkscape:showpageshadow="2"
   inkscape:pageopacity="0.0"
   inkscape:pagecheckerboard="0"
   inkscape:deskcolor="#d1d1d1"
   inkscape:zoom="1.02625"
   inkscape:cx="400"
   inkscape:cy="400"
   inkscape:window-width="1920"
   inkscape:window-height="1017"
   inkscape:window-x="-8"
   inkscape:window-y="-8"
   inkscape:window-maximized="1"
   inkscape:current-layer="Capa_1" />&#10;<g
   id="g8"
   style="fill:#ffffff;fill-opacity:1">&#10;	<g
   id="Sign_Out"
   style="fill:#ffffff;fill-opacity:1">&#10;		<path
   d="M180.455,360.91H24.061V24.061h156.394c6.641,0,12.03-5.39,12.03-12.03s-5.39-12.03-12.03-12.03H12.03    C5.39,0.001,0,5.39,0,12.031V372.94c0,6.641,5.39,12.03,12.03,12.03h168.424c6.641,0,12.03-5.39,12.03-12.03    C192.485,366.299,187.095,360.91,180.455,360.91z"
   id="path1"
   style="fill:#ffffff;fill-opacity:1" />&#10;		<path
   d="M381.481,184.088l-83.009-84.2c-4.704-4.752-12.319-4.74-17.011,0c-4.704,4.74-4.704,12.439,0,17.179l62.558,63.46H96.279    c-6.641,0-12.03,5.438-12.03,12.151c0,6.713,5.39,12.151,12.03,12.151h247.74l-62.558,63.46c-4.704,4.752-4.704,12.439,0,17.179    c4.704,4.752,12.319,4.752,17.011,0l82.997-84.2C386.113,196.588,386.161,188.756,381.481,184.088z"
   id="path2"
   style="fill:#ffffff;fill-opacity:1" />&#10;	</g>&#10;	<g
   id="g2"
   style="fill:#ffffff;fill-opacity:1">&#10;	</g>&#10;	<g
   id="g3"
   style="fill:#ffffff;fill-opacity:1">&#10;	</g>&#10;	<g
   id="g4"
   style="fill:#ffffff;fill-opacity:1">&#10;	</g>&#10;	<g
   id="g5"
   style="fill:#ffffff;fill-opacity:1">&#10;	</g>&#10;	<g
   id="g6"
   style="fill:#ffffff;fill-opacity:1">&#10;	</g>&#10;	<g
   id="g7"
   style="fill:#ffffff;fill-opacity:1">&#10;	</g>&#10;</g>&#10;</svg>
