<?xml version="1.0" encoding="UTF-8" standalone="no"?>
<!-- Generator: Adobe Illustrator 26.2.1, SVG Export Plug-In . SVG Version: 6.00 Build 0)  -->

<svg
   version="1.1"
   x="0px"
   y="0px"
   viewBox="0 0 1330.5474 99.069397"
   xml:space="preserve"
   id="svg13"
   sodipodi:docname="Transcendence_Logo.svg"
   inkscape:version="1.3.1 (9b9bdc1480, 2023-11-25, custom)"
   width="1330.5474"
   height="99.069397"
   xmlns:inkscape="http://www.inkscape.org/namespaces/inkscape"
   xmlns:sodipodi="http://sodipodi.sourceforge.net/DTD/sodipodi-0.dtd"
   xmlns="http://www.w3.org/2000/svg"
   xmlns:svg="http://www.w3.org/2000/svg"><defs
   id="defs13" /><sodipodi:namedview
   id="namedview13"
   pagecolor="#000000"
   bordercolor="#000000"
   borderopacity="0.25"
   inkscape:showpageshadow="2"
   inkscape:pageopacity="0.0"
   inkscape:pagecheckerboard="0"
   inkscape:deskcolor="#d1d1d1"
   inkscape:zoom="0.70710678"
   inkscape:cx="540.93669"
   inkscape:cy="222.03153"
   inkscape:window-width="1854"
   inkscape:window-height="1011"
   inkscape:window-x="0"
   inkscape:window-y="0"
   inkscape:window-maximized="1"
   inkscape:current-layer="svg13" />
<style
   type="text/css"
   id="style1">
	.st0{fill:#FFFFFF;}
	.st1{fill:#FF4EFF;}
</style>
<g
   id="Capa_1"
   transform="translate(-18.0947,-10.434281)">
</g>
<g
   id="Capa_2"
   transform="translate(1112.694,79.575464)">
	<g
   id="g13">
		<path
   class="st0"
   d="m -1024.9051,-78.119894 v 19.377204 h -31.2946 v 76.690084 h -25.0175 V -58.74269 h -31.4768 v -19.377204 z"
   id="path1"
   style="stroke-width:9.09725" />
		<path
   class="st0"
   d="m -964.86302,-78.119894 c 11.46268,0 20.37798,2.638196 26.74609,8.005601 6.36801,5.367397 9.55207,12.554249 9.55207,21.56056 0,7.18685 -1.63754,13.100084 -5.00349,17.648725 -3.36597,4.639612 -8.09672,8.005609 -14.37359,10.097983 l 25.01747,38.754419 h -27.65589 l -20.55984,-35.115508 h -15.01038 v 35.115508 h -24.56272 v -96.067288 z m -3.4569,43.212082 c 4.82137,0 8.46033,-1.0007 10.91669,-2.911129 2.45625,-1.910429 3.63886,-5.003506 3.63886,-9.279228 0,-8.096581 -4.82167,-12.099384 -14.55555,-12.099384 h -17.73976 v 24.289741 z"
   id="path2"
   style="stroke-width:9.09725" />
		<path
   class="st0"
   d="m -823.03635,17.947394 h -25.74534 l -6.73195,-21.6515285 h -32.93221 l -6.82284,21.6515285 h -25.19959 l 33.75086,-96.067288 h 30.02118 z m -60.6788,-38.663448 h 23.56196 l -11.82651,-38.845391 z"
   id="path3"
   style="stroke-width:9.09725" />
		<path
   class="st0"
   d="m -667.12997,-79.575464 c 8.9153,0 16.83002,1.3646 23.65308,4.184753 6.82282,2.72918 12.82704,6.822957 17.83067,12.190353 l -12.09937,16.193163 c -4.18484,-4.366697 -8.6424,-7.641717 -13.46397,-9.825066 -4.82167,-2.183346 -10.28002,-3.275022 -16.37518,-3.275022 -5.36739,0 -9.18822,0.90973 -11.46256,2.638214 -2.36529,1.728482 -3.45702,3.91183 -3.45702,6.368096 0,2.001402 0.90969,3.729885 2.82024,5.18545 1.91028,1.364593 5.00343,2.638213 9.27918,3.54794 l 16.19309,3.638912 c 9.64321,2.274321 16.64804,5.458371 21.10581,9.734092 4.45756,4.275722 6.73191,9.916038 6.73191,17.011916 0,6.822961 -1.72848,12.55424989 -5.27636,17.2848361 -3.45696,4.7305869 -8.27857,8.2785269 -14.37371,10.6438199 -6.09509,2.365292 -13.1002,3.547938 -20.92379,3.547938 -9.73413,0 -18.55837,-1.546537 -26.65513,-4.730585 -8.09649,-3.18405 -14.46455,-7.277825 -19.19507,-12.4632758 l 12.09933,-16.7389982 c 3.54792,4.184749 8.46047,7.6417173 14.55553,10.3709008 6.09532,2.7291835 12.46338,4.18474949 18.92243,4.18474949 10.09791,0 15.10161,-3.00210409 15.10161,-8.91533619 0,-2.0014031 -0.72794,-3.7298861 -2.27443,-5.1854501 -1.54657,-1.364593 -4.27567,-2.638212 -8.18763,-3.54794 l -17.73956,-3.911832 c -5.45837,-1.182646 -10.27994,-2.820156 -14.46481,-4.912531 -4.18463,-2.092374 -7.55068,-5.003504 -10.00703,-8.551445 -2.4562,-3.54794 -3.6388,-8.005606 -3.6388,-13.282032 0,-6.004205 1.63737,-11.371601 4.91255,-16.102186 3.27492,-4.730587 8.09657,-8.460474 14.28278,-11.098681 6.00401,-2.820153 13.46381,-4.184753 22.10621,-4.184753 z"
   id="path4"
   style="stroke-width:9.09725" />
		<path
   class="st0"
   d="m -525.66704,-9.5263978 c -2.8202,10.09798469 -8.00565,17.4667823 -15.46543,22.0154238 -7.55089,4.639614 -16.37511,6.913933 -26.56418,6.913933 -9.82503,0 -18.19451,-2.001401 -25.29045,-5.913234 -7.00484,-3.9118305 -12.46321,-9.5521437 -16.19309,-16.9209435 -3.82082,-7.3687985 -5.64039,-16.2841335 -5.64039,-26.6550335 0,-10.3709 1.91049,-19.286237 5.64039,-26.655035 3.8208,-7.368798 9.18825,-13.009114 16.19309,-16.920939 7.00504,-3.911832 15.3745,-5.913238 25.10863,-5.913238 10.00686,0 18.74036,2.092376 26.20015,6.368097 7.45978,4.275722 12.46321,11.007709 14.82844,20.104994 l -22.0153,8.915334 c -1.36464,-5.913233 -3.54806,-10.00701 -6.641,-12.28133 -3.09312,-2.274321 -6.91392,-3.456968 -11.55351,-3.456968 -7.00502,0 -12.4634,2.547238 -16.37511,7.550745 -3.91191,5.003504 -5.91332,12.463276 -5.91332,22.28834 0,9.825064 1.9105,17.193863 5.64039,22.2883386 3.72989,5.094479 9.37009,7.55074418 16.82987,7.55074418 4.63958,0 8.6424,-1.27361968 11.82643,-3.82085798 3.27514,-2.5472397 5.45839,-6.5500428 6.64101,-11.8264668 z"
   id="path5"
   style="stroke-width:9.09725" />
		<path
   class="st0"
   d="m -511.65738,17.947394 v -96.067288 h 74.77965 v 19.377204 h -49.76212 v 19.468183 h 39.57324 v 18.194564 h -39.57324 v 19.6501272 h 51.67261 V 17.947394 Z"
   id="path6"
   style="stroke-width:9.09725" />
		<path
   class="st0"
   d="m -333.25964,-78.119894 v 96.067288 h -27.83767 l -29.83913,-51.945476 -7.27775,-14.282733 h -0.1826 l 0.54586,17.739698 v 48.488511 h -22.10642 v -96.067288 h 27.83772 l 29.83913,51.945472 7.27776,14.282733 h 0.18259 l -0.54586,-17.7397 v -48.488505 z"
   id="path7"
   style="stroke-width:9.09725" /><path
   class="st0"
   d="m -724.55462,-78.141249 v 96.067301 h -27.83774 l -29.83908,-51.945477 -7.27775,-14.282733 h -0.18263 l 0.5459,17.7397 v 48.48851 h -22.10645 v -96.067301 h 27.83774 l 29.83906,51.945486 7.27777,14.282732 h 0.18262 l -0.54582,-17.7397 v -48.488518 z"
   id="path7-4"
   style="fill:#ffffff;stroke-width:9.09725" />
		<path
   class="st0"
   d="m -271.21619,-78.119894 c 15.01053,0 26.56406,4.184739 34.56968,12.554243 8.00559,8.3695 12.00842,20.195966 12.00842,35.479399 0,15.374407 -4.00283,27.2008702 -12.00842,35.4793982 -8.00562,8.3694978 -19.55915,12.5542478 -34.56968,12.5542478 H -311.972 v -96.067288 z m -2.45625,77.14494292 c 8.18755,0 14.10077,-2.45626742 17.83066,-7.36879782 3.72989,-4.9125331 5.64032,-12.1903581 5.64032,-21.7425031 0,-9.643118 -1.91043,-16.829972 -5.64032,-21.742502 -3.72989,-4.912533 -9.64311,-7.368799 -17.83066,-7.368799 h -13.28204 v 58.22260192 z"
   id="path8"
   style="stroke-width:9.09725" />
		<path
   class="st0"
   d="m -207.44424,17.947394 v -96.067288 h 74.77966 v 19.377204 h -49.76213 v 19.468183 h 39.57317 v 18.194564 h -39.57317 v 19.6501272 h 51.67256 V 17.947394 Z"
   id="path9"
   style="stroke-width:9.09725" />
		<path
   class="st0"
   d="m -29.04654,-78.119894 v 96.067288 h -27.83769 l -29.83908,-51.945476 -7.27783,-14.282733 h -0.18203 l 0.54585,17.739698 v 48.488511 h -22.1064 v -96.067288 h 27.83768 l 29.839098,51.945472 7.277808,14.282733 h 0.182025 l -0.54585,-17.7397 v -48.488505 z"
   id="path10"
   style="stroke-width:9.09725" />
		<path
   class="st0"
   d="M 77.391382,-9.5263978 C 74.571238,0.57158689 69.385777,7.9403845 61.926003,12.489026 c -7.550746,4.639614 -16.375109,6.913933 -26.564055,6.913933 -9.824884,0 -18.1943,-2.001401 -25.290186,-5.913234 C 3.0668709,9.5778945 -2.3914961,3.9375813 -6.1213941,-3.4312185 -9.9422531,-10.800017 -11.761706,-19.715352 -11.761706,-30.086252 c 0,-10.3709 1.9104239,-19.286237 5.6403119,-26.655035 3.82087,-7.368798 9.188265,-13.009114 16.1931561,-16.920939 7.004914,-3.911832 15.374409,-5.913238 25.10823,-5.913238 10.007021,0 18.740404,2.092376 26.200178,6.368097 7.459763,4.275722 12.463259,11.007709 14.828577,20.104994 l -22.015434,8.915334 c -1.364592,-5.913233 -3.547944,-10.00701 -6.641015,-12.28133 -3.093078,-2.274321 -6.913942,-3.456968 -11.553544,-3.456968 -7.004911,0 -12.462996,2.547238 -16.374827,7.550745 -3.911831,5.003504 -5.913238,12.463276 -5.913238,22.28834 0,9.825064 1.910423,17.193863 5.640311,22.2883386 3.729887,5.094479 9.369927,7.55074418 16.829694,7.55074418 4.63962,0 8.642424,-1.27361968 11.826475,-3.82085798 3.275027,-2.5472397 5.458356,-6.5500428 6.641015,-11.8264668 z"
   id="path11"
   style="stroke-width:9.09725" />
		<path
   class="st0"
   d="m 91.310228,17.947394 v -96.067288 h 74.779652 v 19.377204 h -49.76213 v 19.468183 h 39.57316 v 18.194564 h -39.57316 v 19.6501272 h 51.67256 V 17.947394 Z"
   id="path12"
   style="stroke-width:9.09725" />
		<path
   class="st1"
   d="m 199.93177,-13.165308 c 5.6403,0 10.00699,1.455564 13.19105,4.2757215 3.18406,2.9111283 4.73058,6.913934 4.73058,12.0084117 0,5.0035044 -1.54652,9.0063068 -4.73058,11.8264658 -3.18406,2.911131 -7.55075,4.275721 -13.19105,4.275721 -5.64032,0 -10.00702,-1.455564 -13.19107,-4.275721 -3.18404,-2.91113 -4.73057,-6.8229614 -4.73057,-11.8264658 0,-5.1854519 1.54653,-9.1882542 4.73057,-12.0084117 3.18405,-2.9111305 7.64171,-4.2757215 13.19107,-4.2757215 z"
   id="path13"
   style="stroke-width:9.09725" />
	</g>
</g>
</svg>
