<?xml version="1.0" encoding="UTF-8" standalone="no"?>
<!-- Generator: Adobe Illustrator 26.2.1, SVG Export Plug-In . SVG Version: 6.00 Build 0)  -->

<svg
   version="1.1"
   x="0px"
   y="0px"
   viewBox="0 0 276.47 212.00999"
   xml:space="preserve"
   id="svg13"
   sodipodi:docname="Trascendence_Square_Logo.svg"
   inkscape:version="1.3 (0e150ed6c4, 2023-07-21)"
   width="276.47"
   height="212.00999"
   xmlns:inkscape="http://www.inkscape.org/namespaces/inkscape"
   xmlns:sodipodi="http://sodipodi.sourceforge.net/DTD/sodipodi-0.dtd"
   xmlns="http://www.w3.org/2000/svg"
   xmlns:svg="http://www.w3.org/2000/svg"><defs
   id="defs13" /><sodipodi:namedview
   id="namedview13"
   pagecolor="#ffffff"
   bordercolor="#000000"
   borderopacity="0.25"
   inkscape:showpageshadow="2"
   inkscape:pageopacity="0.0"
   inkscape:pagecheckerboard="0"
   inkscape:deskcolor="#d1d1d1"
   inkscape:zoom="1.0314788"
   inkscape:cx="426.08729"
   inkscape:cy="340.77289"
   inkscape:window-width="1920"
   inkscape:window-height="1017"
   inkscape:window-x="-8"
   inkscape:window-y="-8"
   inkscape:window-maximized="1"
   inkscape:current-layer="Capa_2" />&#10;<style
   type="text/css"
   id="style1">&#10;	.st0{fill:#FFFFFF;}&#10;	.st1{fill:#FF4EFF;}&#10;</style>&#10;<g
   id="Capa_1"
   transform="translate(-10.3473,-12.40103)">&#10;</g>&#10;<g
   id="Capa_2"
   transform="translate(1130.37,366.01)">&#10;	<g
   id="g13">&#10;		<path
   class="st0"
   d="m -1112.04,-354.22 h -18.33 v -10.85 h 48.76 v 10.85 h -18.33 v 59.23 h -12.1 z"
   id="path1" />&#10;		<path
   class="st0"
   d="m -1069.89,-365.06 h 22.17 c 13.92,0 23.04,8.26 23.04,20.83 0,9.31 -4.99,16.7 -12.96,19.68 l 13.92,29.57 h -13.44 l -12.19,-27.84 h -8.54 v 27.84 h -12 z m 22.17,31.67 c 6.72,0 10.85,-3.94 10.85,-10.46 0,-6.62 -4.13,-10.66 -10.85,-10.66 h -10.18 v 21.12 z"
   id="path2" />&#10;		<path
   class="st0"
   d="m -998.57,-365.06 h 15.46 l 17.76,70.07 h -12.29 l -3.84,-16.99 h -18.62 l -3.84,16.99 h -12.29 z m 14.88,43.29 -4.22,-18.81 c -1.34,-6.24 -2.5,-11.71 -2.88,-14.02 -0.38,2.3 -1.44,7.78 -2.88,13.92 l -4.22,18.91 z"
   id="path3" />&#10;		<path
   class="st0"
   d="m -956.52,-313.9 h 12 c 0,5.66 4.61,9.41 11.62,9.41 6.91,0 11.04,-3.65 11.04,-9.31 0,-4.7 -2.78,-8.35 -7.58,-9.6 l -8.45,-2.3 c -10.85,-2.88 -17.18,-10.46 -17.18,-20.73 0,-11.9 8.54,-19.58 21.98,-19.58 13.53,0 22.17,7.49 22.17,19.29 h -12 c 0,-5.38 -3.84,-8.83 -10.27,-8.83 -6.24,0 -9.98,3.36 -9.98,8.93 0,4.42 2.69,7.78 7.68,9.02 l 8.54,2.4 c 10.94,2.88 17.09,10.46 17.09,21.02 0,12.1 -9.12,20.16 -23.13,20.16 -14.31,-0.01 -23.53,-7.78 -23.53,-19.88 z"
   id="path4" />&#10;		<path
   class="st0"
   d="m -1127.87,-244.77 v -30.53 c 0,-12.67 8.74,-20.73 22.27,-20.73 13.44,0 22.27,8.16 22.27,20.73 h -12.1 c 0,-6.62 -3.74,-10.18 -10.17,-10.18 -6.53,0 -10.27,3.55 -10.27,10.08 v 30.62 c 0,6.62 3.74,10.18 10.27,10.18 6.43,0 10.17,-3.55 10.17,-10.18 h 12.1 c 0,12.57 -8.83,20.73 -22.27,20.73 -13.54,0.02 -22.27,-8.05 -22.27,-20.72 z"
   id="path5" />&#10;		<path
   class="st0"
   d="m -1068.74,-295.07 h 42.04 v 10.56 h -30.24 v 18.24 h 26.88 v 10.18 h -26.88 v 20.54 h 30.24 v 10.56 h -42.04 z"
   id="path6" />&#10;		<path
   class="st0"
   d="m -1012.68,-295.07 h 14.69 l 19.49,56.64 c -0.58,-6.05 -1.34,-16.7 -1.34,-23.42 v -33.21 h 10.94 v 70.07 h -14.69 l -19.29,-56.64 c 0.48,5.57 1.15,15.55 1.15,22.37 v 34.27 h -10.94 v -70.08 z"
   id="path7" />&#10;		<path
   class="st0"
   d="m -954.79,-295.07 h 20.83 c 14.11,0 23.33,8.64 23.33,21.89 v 26.21 c 0,13.25 -9.22,21.98 -23.33,21.98 h -20.83 z m 20.83,59.33 c 6.91,0 11.33,-4.42 11.33,-11.23 v -26.21 c 0,-6.82 -4.42,-11.14 -11.33,-11.14 h -8.83 v 48.57 h 8.83 z"
   id="path8" />&#10;		<path
   class="st0"
   d="m -895.94,-295.07 h 42.04 v 10.56 h -30.24 v 18.24 h 26.88 v 10.18 h -26.88 v 20.54 h 30.24 v 10.56 h -42.04 z"
   id="path9" />&#10;		<path
   class="st0"
   d="m -1127.87,-225.03 h 14.69 l 19.49,56.64 c -0.58,-6.05 -1.34,-16.7 -1.34,-23.42 v -33.21 h 10.94 v 70.07 h -14.69 l -19.29,-56.64 c 0.48,5.57 1.15,15.55 1.15,22.37 v 34.27 h -10.94 v -70.08 z"
   id="path10" />&#10;		<path
   class="st0"
   d="m -1070.28,-174.73 v -30.53 c 0,-12.67 8.74,-20.73 22.27,-20.73 13.44,0 22.27,8.16 22.27,20.73 h -12.1 c 0,-6.62 -3.74,-10.18 -10.18,-10.18 -6.53,0 -10.27,3.55 -10.27,10.08 v 30.62 c 0,6.62 3.74,10.17 10.27,10.17 6.43,0 10.18,-3.55 10.18,-10.17 h 12.1 c 0,12.58 -8.83,20.73 -22.27,20.73 -13.53,0.01 -22.27,-8.05 -22.27,-20.72 z"
   id="path11" />&#10;		<path
   class="st0"
   d="m -1011.14,-225.03 h 42.04 v 10.56 h -30.24 v 18.24 h 26.88 v 10.18 h -26.88 v 20.54 h 30.24 v 10.56 h -42.04 z"
   id="path12" />&#10;		<path
   class="st1"
   d="m -954.82,-169.16 c 0,-9.46 6.03,-15.32 15.32,-15.32 9.29,0 15.32,5.87 15.32,15.32 0,9.29 -6.03,15.16 -15.32,15.16 -9.29,0 -15.32,-5.87 -15.32,-15.16 z"
   id="path13" />&#10;	</g>&#10;</g>&#10;</svg>
