<?xml version="1.0" encoding="UTF-8" standalone="no"?>
<!-- Generator: Adobe Illustrator 26.2.1, SVG Export Plug-In . SVG Version: 6.00 Build 0)  -->

<svg
   version="1.1"
   x="0px"
   y="0px"
   viewBox="0 0 1366 768"
   style="enable-background:new 0 0 1366 768;"
   xml:space="preserve"
   id="svg13"
   sodipodi:docname="Trascendence_Square_Logo.svg"
   inkscape:version="1.3.1 (9b9bdc1480, 2023-11-25, custom)"
   xmlns:inkscape="http://www.inkscape.org/namespaces/inkscape"
   xmlns:sodipodi="http://sodipodi.sourceforge.net/DTD/sodipodi-0.dtd"
   xmlns="http://www.w3.org/2000/svg"
   xmlns:svg="http://www.w3.org/2000/svg"><defs
   id="defs13" /><sodipodi:namedview
   id="namedview13"
   pagecolor="#000000"
   bordercolor="#000000"
   borderopacity="0.25"
   inkscape:showpageshadow="2"
   inkscape:pageopacity="0.0"
   inkscape:pagecheckerboard="0"
   inkscape:deskcolor="#d1d1d1"
   inkscape:zoom="0.72936565"
   inkscape:cx="636.85478"
   inkscape:cy="287.92143"
   inkscape:window-width="1854"
   inkscape:window-height="1011"
   inkscape:window-x="0"
   inkscape:window-y="0"
   inkscape:window-maximized="1"
   inkscape:current-layer="svg13" />
<style
   type="text/css"
   id="style1">
	.st0{fill:#FFFFFF;}
	.st1{fill:#FF4EFF;}
</style>
<g
   id="Capa_1">
</g>
<g
   id="Capa_2"
   transform="matrix(0.9730836,0,0,0.9730836,1123.628,380.30465)">
	<g
   id="g13">
		<path
   class="st0"
   d="m -1073.9728,-338.77457 h -66.7235 v -39.49533 h 177.49231 v 39.49533 h -66.72341 v 215.60443 h -44.0454 z"
   id="path1"
   style="stroke-width:3.64012" />
		<path
   class="st0"
   d="m -920.54173,-378.23349 h 80.7015 c 50.67053,0 83.86846,30.06741 83.86846,75.82375 0,33.88952 -18.16432,60.79004 -47.17598,71.6376 l 50.67038,107.63842 h -48.92311 l -44.37315,-101.34101 h -31.08667 v 101.34101 h -43.68143 z m 80.7015,115.28266 c 24.46156,0 39.49531,-14.34206 39.49531,-38.07568 0,-24.0976 -15.03375,-38.8037 -39.49531,-38.8037 h -37.05645 v 76.87938 z"
   id="path2"
   style="stroke-width:3.64012" />
		<path
   class="st0"
   d="m -660.92824,-378.23349 h 56.2763 l 64.64857,255.06335 h -44.73709 l -13.97809,-61.84566 h -67.77912 l -13.97804,61.84566 h -44.73713 z m 54.16503,157.58089 -15.36132,-68.4707 c -4.87775,-22.71437 -9.10031,-42.62583 -10.48354,-51.03452 -1.38325,8.37229 -5.24178,28.32015 -10.48356,50.67051 l -15.36138,68.83471 z"
   id="path3"
   style="stroke-width:3.64012" />
		<path
   class="st0"
   d="m -292.59008,-195.53395 h 43.68146 c 0,20.60311 16.78097,34.25356 42.29823,34.25356 25.15325,0 40.18694,-13.28644 40.18694,-33.88953 0,-17.10858 -10.11954,-30.39503 -27.59213,-34.94518 l -30.75903,-8.37228 c -39.49532,-10.48355 -62.5373,-38.07567 -62.5373,-75.45974 0,-43.31745 31.08665,-71.27359 80.00989,-71.27359 49.25086,0 80.70151,27.26452 80.70151,70.21796 h -43.68147 c 0,-19.58385 -13.97807,-32.14229 -37.38405,-32.14229 -22.71437,0 -36.32843,12.23083 -36.32843,32.5063 0,16.08935 9.79193,28.32016 27.95615,32.8339 l 31.08665,8.73631 c 39.82292,10.48354 62.20968,38.07567 62.20968,76.51536 0,44.04548 -33.19792,73.38487 -84.19602,73.38487 -52.09014,-0.0364 -85.65208,-28.32017 -85.65208,-72.36565 z"
   id="path4"
   style="stroke-width:3.64012" />
		<path
   class="st0"
   d="M -1131.596,59.63681 V -51.496113 c 0,-46.120352 31.8147,-75.459737 81.0655,-75.459737 48.9233,0 81.06552,29.703395 81.06552,75.459737 h -44.04552 c 0,-24.097618 -13.614,-37.05644 -37.02,-37.05644 -23.7699,0 -37.384,12.922425 -37.384,36.692432 V 59.600412 c 0,24.097604 13.6141,37.056441 37.384,37.056441 23.406,0 37.02,-12.922424 37.02,-37.056441 h 44.04552 c 0,45.756338 -32.14222,75.459728 -81.06552,75.459728 -49.2872,0.0728 -81.0655,-29.30298 -81.0655,-75.42333 z"
   id="path5"
   style="stroke-width:3.64012" />
		<path
   class="st0"
   d="m -916.3556,-123.46133 h 153.03075 v 38.439695 h -110.07728 v 66.395824 h 97.8465 v 37.05644 h -97.8465 v 74.768117 h 110.07728 V 131.63844 H -916.3556 Z"
   id="path6"
   style="stroke-width:3.64012" />
		<path
   class="st0"
   d="m -712.29034,-123.46133 h 53.47336 l 70.94601,206.176515 c -2.11127,-22.022733 -4.87776,-60.790035 -4.87776,-85.2516611 V -123.42494 h 39.82293 v 255.06338 h -53.4734 l -70.21798,-206.176529 c 1.74727,20.275488 4.18612,56.603897 4.18612,81.4295319 V 131.63844 h -39.8229 v -255.09977 z"
   id="path7"
   style="stroke-width:3.64012" /><path
   class="st0"
   d="m -505.19706,-378.17267 h 53.47339 l 70.94598,206.17654 c -2.11126,-22.02276 -4.87775,-60.79006 -4.87775,-85.25167 v -120.88847 h 39.82293 v 255.06337 h -53.47341 l -70.21795,-206.17653 c 1.74726,20.27549 4.18614,56.6039 4.18614,81.42954 v 124.74699 h -39.82292 v -255.09977 z"
   id="path7-0"
   style="fill:#ffffff;stroke-width:3.64012" />
		<path
   class="st0"
   d="m -501.56367,-123.46133 h 75.82374 c 51.36212,0 84.92405,31.450654 84.92405,79.682274 v 95.407597 c 0,48.231625 -33.56193,80.009899 -84.92405,80.009899 h -75.82374 z m 75.82374,215.968443 c 25.15325,0 41.24259,-16.089335 41.24259,-40.878572 v -95.407597 c 0,-24.825634 -16.08934,-40.550961 -41.24259,-40.550961 h -32.14228 V 92.470715 h 32.14228 z"
   id="path8"
   style="stroke-width:3.64012" />
		<path
   class="st0"
   d="m -287.34247,-123.46133 h 153.03073 v 38.439695 h -110.0773 v 66.395824 h 97.84649 v 37.05644 h -97.84649 v 74.768117 h 110.0773 v 38.439694 h -153.03073 z"
   id="path9"
   style="stroke-width:3.64012" />
		<path
   class="st0"
   d="m -1131.596,131.49282 h 53.4735 l 70.9459,206.17654 c -2.1113,-22.02276 -4.8779,-60.79005 -4.8779,-85.25167 V 131.52923 h 39.82307 v 255.06336 h -53.47347 l -70.2179,-206.17653 c 1.7473,20.27549 4.1861,56.60392 4.1861,81.42954 v 124.74699 h -39.823 V 131.49282 Z"
   id="path10"
   style="stroke-width:3.64012" />
		<path
   class="st0"
   d="M -921.9614,314.59098 V 203.45804 c 0,-46.12035 31.81463,-75.45974 81.06548,-75.45974 48.92324,0 81.06562,29.7034 81.06562,75.45974 h -44.04555 c 0,-24.0976 -13.61407,-37.05644 -37.05646,-37.05644 -23.76998,0 -37.38405,12.92242 -37.38405,36.69243 v 111.46053 c 0,24.09763 13.61407,37.02005 37.38405,37.02005 23.406,0 37.05646,-12.92242 37.05646,-37.02005 h 44.04555 c 0,45.79275 -32.14238,75.45974 -81.06562,75.45974 -49.25085,0.0364 -81.06548,-29.30298 -81.06548,-75.42332 z"
   id="path11"
   style="stroke-width:3.64012" />
		<path
   class="st0"
   d="m -706.68454,131.49282 h 153.03072 v 38.4397 h -110.07725 v 66.39582 h 97.84643 v 37.05644 h -97.84643 v 74.76811 h 110.07725 v 38.4397 h -153.03072 z"
   id="path12"
   style="stroke-width:3.64012" />
		<path
   class="st1"
   d="m -501.67287,334.86645 c 0,-34.43556 21.94993,-55.76667 55.76667,-55.76667 33.81672,0 55.76667,21.36751 55.76667,55.76667 0,33.81674 -21.94995,55.18427 -55.76667,55.18427 -33.81674,0 -55.76667,-21.36753 -55.76667,-55.18427 z"
   id="path13"
   style="stroke-width:3.64012" />
	</g>
</g>
</svg>
